<svg width="17" height="16" viewBox="0 0 17 16" fill="none" xmlns="http://www.w3.org/2000/svg">
<path fill-rule="evenodd" clip-rule="evenodd" d="M3.13807 7.45143C2.87183 7.48809 2.66663 7.71969 2.66663 7.99993C2.66663 8.30564 2.91083 8.55347 3.21208 8.55347H12.7999L9.33642 12.0542L9.28348 12.1162C9.1246 12.3326 9.14158 12.6401 9.33482 12.8371C9.5474 13.0537 9.89276 13.0544 10.1062 12.8387L14.4984 8.3997C14.5246 8.37427 14.5483 8.34622 14.569 8.31597C14.7177 8.0998 14.6968 7.79995 14.5062 7.60737L10.1062 3.16129L10.0449 3.10782C9.83101 2.9475 9.52802 2.96603 9.33479 3.16297C9.12224 3.37961 9.12298 3.7301 9.33645 3.9458L12.8008 7.44638L3.21208 7.44638L3.13807 7.45143Z" fill="#00100B"/>
</svg>
