<svg width="16" height="16" viewBox="0 0 16 16" fill="none" xmlns="http://www.w3.org/2000/svg">
<path fill-rule="evenodd" clip-rule="evenodd" d="M14.5925 10.597H11.8938C10.6291 10.597 9.59979 9.56837 9.59912 8.30437C9.59912 7.03903 10.6285 6.0097 11.8938 6.00903H14.5925C14.8685 6.00903 15.0925 6.23303 15.0925 6.50903C15.0925 6.78503 14.8685 7.00903 14.5925 7.00903H11.8938C11.1798 7.0097 10.5991 7.59037 10.5991 8.3037C10.5991 9.01637 11.1805 9.59703 11.8938 9.59703H14.5925C14.8685 9.59703 15.0925 9.82103 15.0925 10.097C15.0925 10.373 14.8685 10.597 14.5925 10.597Z" fill="#004741"/>
<path fill-rule="evenodd" clip-rule="evenodd" d="M12.199 8.76245H11.991C11.715 8.76245 11.491 8.53845 11.491 8.26245C11.491 7.98645 11.715 7.76245 11.991 7.76245H12.199C12.475 7.76245 12.699 7.98645 12.699 8.26245C12.699 8.53845 12.475 8.76245 12.199 8.76245Z" fill="#004741"/>
<mask id="mask0_1_392" style="mask-type:luminance" maskUnits="userSpaceOnUse" x="1" y="2" width="15" height="13">
<path fill-rule="evenodd" clip-rule="evenodd" d="M1.33337 2H15.0924V14.7819H1.33337V2Z" fill="white"/>
</mask>
<g mask="url(#mask0_1_392)">
<path fill-rule="evenodd" clip-rule="evenodd" d="M5.3318 3C3.67846 3 2.33313 4.34533 2.33313 5.99867V10.7833C2.33313 12.4367 3.67846 13.782 5.3318 13.782H11.0945C12.7478 13.782 14.0925 12.4367 14.0925 10.7833V5.99867C14.0925 4.34533 12.7478 3 11.0945 3H5.3318ZM11.0945 14.782H5.3318C3.12713 14.782 1.33313 12.988 1.33313 10.7833V5.99867C1.33313 3.79333 3.12713 2 5.3318 2H11.0945C13.2991 2 15.0925 3.79333 15.0925 5.99867V10.7833C15.0925 12.988 13.2991 14.782 11.0945 14.782Z" fill="#004741"/>
</g>
<path fill-rule="evenodd" clip-rule="evenodd" d="M8.45639 6.02539H4.85706C4.58106 6.02539 4.35706 5.80139 4.35706 5.52539C4.35706 5.24939 4.58106 5.02539 4.85706 5.02539H8.45639C8.73239 5.02539 8.95639 5.24939 8.95639 5.52539C8.95639 5.80139 8.73239 6.02539 8.45639 6.02539Z" fill="#004741"/>
</svg>
